<svg width="19" height="15" viewBox="0 0 19 15" fill="none" xmlns="http://www.w3.org/2000/svg">
<path d="M16.6792 0H2.32081C1.04117 0 0 1.15077 0 2.5651V11.6915C0 13.1058 1.04117 14.2566 2.32081 14.2566H16.6792C17.9588 14.2566 19 13.1058 19 11.6915V2.56538C19.0003 1.15077 17.9591 0 16.6792 0ZM15.5452 1.67344L9.5 5.97809L3.45484 1.67344H15.5452ZM16.6792 12.5834H2.32081C1.87593 12.5834 1.51406 12.1832 1.51406 11.6918V2.6128L9.03291 7.95665C9.04301 7.96362 9.05386 7.96836 9.0642 7.97478C9.07505 7.98147 9.08616 7.98789 9.09726 7.99402C9.15555 8.02721 9.21561 8.05399 9.27693 8.07156C9.28324 8.07351 9.28955 8.07435 9.29585 8.07602C9.36323 8.09359 9.43136 8.10447 9.4995 8.10447H9.5C9.50051 8.10447 9.50101 8.10447 9.50101 8.10447C9.56914 8.10447 9.63728 8.09387 9.70465 8.07602C9.71096 8.07435 9.71727 8.07351 9.72358 8.07156C9.7849 8.05399 9.8447 8.02721 9.90325 7.99402C9.91435 7.98789 9.92545 7.98147 9.9363 7.97478C9.94665 7.96836 9.9575 7.96362 9.96759 7.95665L17.4864 2.6128V11.6915C17.4862 12.1832 17.1241 12.5834 16.6792 12.5834Z" fill="white"/>
</svg>
