<svg width="17" height="17" viewBox="0 0 17 17" fill="none" xmlns="http://www.w3.org/2000/svg">
<path d="M8.5 1.48816C10.7695 1.48816 11.0387 1.49642 11.9354 1.53632C14.2389 1.63815 15.3149 2.69974 15.4197 4.92064C15.4608 5.79097 15.4686 6.05241 15.4686 8.25679C15.4686 10.4619 15.4601 10.7226 15.4197 11.5929C15.3142 13.8118 14.241 14.8754 11.9354 14.9773C11.0387 15.0172 10.7709 15.0254 8.5 15.0254C6.2305 15.0254 5.96133 15.0172 5.06529 14.9773C2.75612 14.8747 1.68583 13.8083 1.581 11.5923C1.53992 10.7219 1.53142 10.4612 1.53142 8.2561C1.53142 6.05172 1.54063 5.79097 1.581 4.91995C1.68654 2.69974 2.75967 1.63746 5.06529 1.53563C5.96204 1.49642 6.2305 1.48816 8.5 1.48816ZM8.5 0C6.19154 0 5.90254 0.00963212 4.99587 0.0495366C1.90896 0.187138 0.193375 1.85074 0.0517083 4.85184C0.00991667 5.73317 0 6.01388 0 8.2561C0 10.4983 0.00991667 10.7797 0.051 11.6604C0.192667 14.6587 1.90542 16.3251 4.99517 16.4627C5.90254 16.5026 6.19154 16.5122 8.5 16.5122C10.8085 16.5122 11.0982 16.5026 12.0048 16.4627C15.0889 16.3251 16.8087 14.6615 16.9483 11.6604C16.9901 10.7797 17 10.4983 17 8.2561C17 6.01388 16.9901 5.73317 16.949 4.85252C16.8102 1.85693 15.0953 0.187826 12.0055 0.0502246C11.0982 0.00963212 10.8085 0 8.5 0ZM8.5 4.01659C6.08954 4.01659 4.13525 5.91481 4.13525 8.2561C4.13525 10.5974 6.08954 12.4963 8.5 12.4963C10.9105 12.4963 12.8648 10.5981 12.8648 8.2561C12.8648 5.91481 10.9105 4.01659 8.5 4.01659ZM8.5 11.0081C6.93529 11.0081 5.66667 9.7766 5.66667 8.2561C5.66667 6.73629 6.93529 5.50407 8.5 5.50407C10.0647 5.50407 11.3333 6.73629 11.3333 8.2561C11.3333 9.7766 10.0647 11.0081 8.5 11.0081ZM13.0376 2.85867C12.4737 2.85867 12.0169 3.30244 12.0169 3.84941C12.0169 4.39637 12.4737 4.84014 13.0376 4.84014C13.6007 4.84014 14.0569 4.39637 14.0569 3.84941C14.0569 3.30244 13.6007 2.85867 13.0376 2.85867Z" fill="white"/>
</svg>
