<svg width="21" height="21" viewBox="0 0 21 21" fill="none" xmlns="http://www.w3.org/2000/svg">
<g clip-path="url(#clip0_29_24)">
<path d="M14.9888 12.4556C14.7394 12.3375 13.5451 11.7469 13.3219 11.655C13.0988 11.5631 12.9413 11.5369 12.7707 11.7862C12.6001 12.0356 12.1407 12.5737 11.9963 12.7444C11.8519 12.915 11.7207 12.9281 11.4713 12.7444C10.755 12.4569 10.0935 12.0485 9.51568 11.5369C8.99258 11.0444 8.54973 10.4731 8.20318 9.84374C8.0588 9.60749 8.20318 9.47624 8.30818 9.34499C8.41318 9.21374 8.54443 9.06936 8.67568 8.92499C8.77166 8.80013 8.85107 8.66337 8.91193 8.51811C8.94449 8.45056 8.9614 8.37654 8.9614 8.30155C8.9614 8.22656 8.94449 8.15254 8.91193 8.08499C8.91193 7.96686 8.36068 6.77249 8.15068 6.28686C7.94068 5.80124 7.75693 5.86686 7.61255 5.86686H7.08755C6.83746 5.87661 6.60144 5.98518 6.4313 6.16874C6.15667 6.43081 5.93914 6.74678 5.79233 7.09685C5.64553 7.44692 5.57262 7.82355 5.57818 8.20311C5.64531 9.13496 5.98795 10.0258 6.56255 10.7625C7.61698 12.3289 9.05954 13.5951 10.7494 14.4375C11.3269 14.6869 11.7732 14.8312 12.1276 14.9494C12.6252 15.0998 13.1512 15.1312 13.6632 15.0412C14.0032 14.9722 14.3255 14.8341 14.61 14.6354C14.8945 14.4368 15.1351 14.1818 15.3169 13.8862C15.4683 13.5213 15.5182 13.1222 15.4613 12.7312C15.3957 12.6394 15.2382 12.5737 14.9888 12.4556Z" fill="white"/>
<path d="M17.4432 3.51747C16.5355 2.60119 15.4535 1.87596 14.261 1.38454C13.0686 0.893129 11.7897 0.645485 10.5 0.656218C8.79155 0.665159 7.11531 1.1222 5.63873 1.98169C4.16214 2.84118 2.93691 4.07304 2.08539 5.55423C1.23387 7.03542 0.785872 8.7141 0.786139 10.4226C0.786407 12.1311 1.23493 13.8097 2.08691 15.2906L0.774414 20.3437L5.94566 19.0312C7.37528 19.8091 8.97747 20.2153 10.605 20.2125H10.5C12.4398 20.2251 14.3394 19.6597 15.9565 18.5884C17.5737 17.5172 18.8352 15.9885 19.58 14.1974C20.3249 12.4063 20.5195 10.434 20.1389 8.53185C19.7583 6.62974 18.8198 4.88407 17.4432 3.51747ZM10.5 18.5325C9.04389 18.5336 7.61481 18.1389 6.36566 17.3906L6.07691 17.22L3.00566 18.0206L3.81941 15.0281L3.63566 14.7262C2.58744 13.0381 2.19534 11.024 2.53375 9.06595C2.87216 7.10792 3.91754 5.34222 5.47155 4.10387C7.02555 2.86553 8.98005 2.24069 10.9642 2.34792C12.9484 2.45515 14.8242 3.28699 16.2357 4.68559C16.9924 5.4362 17.5921 6.3299 18 7.31462C18.4078 8.29934 18.6157 9.35539 18.6113 10.4212C18.6078 12.5714 17.7521 14.6325 16.2317 16.1529C14.7113 17.6733 12.6502 18.529 10.5 18.5325Z" fill="white"/>
</g>
<defs>
<clipPath id="clip0_29_24">
<rect width="21" height="21" fill="white"/>
</clipPath>
</defs>
</svg>
